# MagicaVoxel @ Ephtracy

# group
g Compactor

# material
mtllib Compactor.mtl
usemtl palette

# normals
vn -1 0 0
vn 1 0 0
vn 0 0 1
vn 0 0 -1
vn 0 -1 0
vn 0 1 0

# texcoords
vt 0.849609 0.5
vt 0.974609 0.5
vt 0.994141 0.5

# verts
v -0.5 0 0.5
v -0.5 0 -0.5
v -0.5 0.5 0.5
v -0.5 0.5 0.4
v -0.5 0.6 0.4
v -0.5 0.6 -0.5
v 0.3 0.2 0.5
v 0.3 0.2 0.4
v 0.3 0.3 0.4
v 0.3 0.3 0.1
v 0.3 0.4 0.5
v 0.3 0.4 0.4
v 0.3 0.4 0.1
v -0.3 0.2 0.5
v -0.3 0.2 0.4
v -0.3 0.3 0.4
v -0.3 0.3 0.1
v -0.3 0.4 0.5
v -0.3 0.4 0.4
v -0.3 0.4 0.1
v 0.5 0 0.5
v 0.5 0 -0.5
v 0.5 0.5 0.5
v 0.5 0.5 0.4
v 0.5 0.6 0.4
v 0.5 0.6 -0.5
v -0.5 0 0.5
v -0.5 0.5 0.5
v -0.4 0.1 0.5
v -0.4 0.5 0.5
v -0.3 0.2 0.5
v -0.3 0.4 0.5
v 0.3 0.2 0.5
v 0.3 0.4 0.5
v 0.4 0.1 0.5
v 0.4 0.5 0.5
v 0.5 0 0.5
v 0.5 0.5 0.5
v -0.5 0.5 0.4
v -0.5 0.6 0.4
v -0.4 0.5 0.4
v -0.3 0.2 0.4
v -0.3 0.3 0.4
v 0.3 0.2 0.4
v 0.3 0.3 0.4
v 0.4 0.5 0.4
v 0.5 0.5 0.4
v 0.5 0.6 0.4
v -0.3 0.3 0.1
v -0.3 0.4 0.1
v 0.3 0.3 0.1
v 0.3 0.4 0.1
v -0.5 0 -0.5
v -0.5 0.6 -0.5
v 0.5 0 -0.5
v 0.5 0.6 -0.5
v -0.5 0 0.5
v 0.5 0 0.5
v -0.5 0 -0.5
v 0.5 0 -0.5
v -0.3 0.4 0.5
v 0.3 0.4 0.5
v -0.3 0.4 0.4
v 0.3 0.4 0.4
v -0.3 0.4 0.1
v 0.3 0.4 0.1
v -0.3 0.2 0.5
v 0.3 0.2 0.5
v -0.3 0.2 0.4
v 0.3 0.2 0.4
v -0.3 0.3 0.4
v 0.3 0.3 0.4
v -0.3 0.3 0.1
v 0.3 0.3 0.1
v -0.5 0.5 0.5
v -0.4 0.5 0.5
v 0.4 0.5 0.5
v 0.5 0.5 0.5
v -0.5 0.5 0.4
v -0.4 0.5 0.4
v 0.4 0.5 0.4
v 0.5 0.5 0.4
v -0.5 0.6 0.4
v 0.5 0.6 0.4
v -0.5 0.6 -0.5
v 0.5 0.6 -0.5

# faces
f 3/1/1 2/1/1 1/1/1
f 4/1/1 2/1/1 3/1/1
f 5/1/1 2/1/1 4/1/1
f 6/1/1 2/1/1 5/1/1
f 9/2/1 8/2/1 7/2/1
f 11/2/1 9/2/1 7/2/1
f 12/3/1 10/3/1 9/3/1
f 12/2/1 9/2/1 11/2/1
f 13/3/1 10/3/1 12/3/1
f 14/2/2 15/2/2 16/2/2
f 14/2/2 16/2/2 18/2/2
f 16/3/2 17/3/2 19/3/2
f 18/2/2 16/2/2 19/2/2
f 19/3/2 17/3/2 20/3/2
f 21/1/2 22/1/2 23/1/2
f 23/1/2 22/1/2 24/1/2
f 24/1/2 22/1/2 25/1/2
f 25/1/2 22/1/2 26/1/2
f 29/1/3 28/1/3 27/1/3
f 30/1/3 28/1/3 29/1/3
f 31/2/3 30/2/3 29/2/3
f 32/2/3 30/2/3 31/2/3
f 33/2/3 31/2/3 29/2/3
f 34/2/3 30/2/3 32/2/3
f 35/1/3 29/1/3 27/1/3
f 35/2/3 34/2/3 33/2/3
f 35/2/3 33/2/3 29/2/3
f 36/2/3 30/2/3 34/2/3
f 36/2/3 34/2/3 35/2/3
f 37/1/3 35/1/3 27/1/3
f 37/1/3 36/1/3 35/1/3
f 38/1/3 36/1/3 37/1/3
f 41/1/3 40/1/3 39/1/3
f 44/3/3 43/3/3 42/3/3
f 45/3/3 43/3/3 44/3/3
f 46/1/3 40/1/3 41/1/3
f 47/1/3 40/1/3 46/1/3
f 48/1/3 40/1/3 47/1/3
f 51/3/3 50/3/3 49/3/3
f 52/3/3 50/3/3 51/3/3
f 53/1/4 54/1/4 55/1/4
f 55/1/4 54/1/4 56/1/4
f 59/1/5 58/1/5 57/1/5
f 60/1/5 58/1/5 59/1/5
f 63/2/5 62/2/5 61/2/5
f 64/2/5 62/2/5 63/2/5
f 65/3/5 64/3/5 63/3/5
f 66/3/5 64/3/5 65/3/5
f 67/2/6 68/2/6 69/2/6
f 69/2/6 68/2/6 70/2/6
f 71/3/6 72/3/6 73/3/6
f 73/3/6 72/3/6 74/3/6
f 75/1/6 76/1/6 79/1/6
f 76/2/6 77/2/6 80/2/6
f 79/1/6 76/1/6 80/1/6
f 77/1/6 78/1/6 81/1/6
f 80/2/6 77/2/6 81/2/6
f 81/1/6 78/1/6 82/1/6
f 83/1/6 84/1/6 85/1/6
f 85/1/6 84/1/6 86/1/6
