# MagicaVoxel @ Ephtracy

# group
g Turret

# material
mtllib Turret.mtl
usemtl palette

# normals
vn -1 0 0
vn 1 0 0
vn 0 0 1
vn 0 0 -1
vn 0 -1 0
vn 0 1 0

# texcoords
vt 0.849609 0.5
vt 0.853516 0.5
vt 0.861328 0.5
vt 0.966797 0.5
vt 0.982422 0.5
vt 0.986328 0.5
vt 0.994141 0.5

# verts
v -0.5 -0.2 0.35
v -0.5 -0.2 -0.55
v -0.5 -0.1 0.35
v -0.5 -0.1 -0.55
v -0.5 0 0.35
v -0.5 0 -0.55
v -0.5 0.2 0.35
v -0.5 0.2 -0.55
v -0.4 -0.3 0.35
v -0.4 -0.3 -0.45
v -0.4 -0.2 0.35
v -0.4 -0.2 -0.45
v -0.4 0.2 0.35
v -0.4 0.2 -0.35
v -0.4 0.3 0.35
v -0.4 0.3 -0.35
v -0.2 -0.1 0.55
v -0.2 -0.1 0.15
v -0.2 -0.1 0.05
v -0.2 0 0.15
v -0.2 0 0.05
v -0.2 0.1 0.55
v -0.2 0.1 0.15
v -0.2 0.1 0.05
v -0.1 -0.2 0.55
v -0.1 -0.2 0.15
v -0.1 -0.2 0.05
v -0.1 -0.1 0.55
v -0.1 -0.1 0.15
v -0.1 -0.1 0.05
v -0.1 0.1 0.55
v -0.1 0.1 0.15
v -0.1 0.1 0.05
v -0.1 0.2 0.55
v -0.1 0.2 0.15
v -0.1 0.2 0.05
v 0.2 -0.3 -0.35
v 0.2 -0.3 -0.45
v 0.2 -0.2 -0.35
v 0.2 -0.2 -0.45
v 0.2 -0.2 -0.55
v 0.2 -0.1 -0.45
v 0.2 -0.1 -0.55
v 0.2 0 -0.45
v 0.2 0 -0.55
v 0.2 0.2 -0.45
v 0.2 0.2 -0.55
v 0.3 -0.3 0.35
v 0.3 -0.3 0.05
v 0.3 -0.1 0.35
v 0.3 -0.1 0.05
v 0.3 0 0.35
v 0.3 0 0.05
v 0.3 0.2 0.05
v 0.3 0.2 -0.15
v 0.3 0.3 0.35
v 0.3 0.3 -0.15
v -0.3 -0.3 0.35
v -0.3 -0.3 0.05
v -0.3 -0.1 0.35
v -0.3 -0.1 0.05
v -0.3 0 0.35
v -0.3 0 0.05
v -0.3 0.2 0.05
v -0.3 0.2 -0.15
v -0.3 0.3 0.35
v -0.3 0.3 -0.15
v -0.2 -0.3 -0.35
v -0.2 -0.3 -0.45
v -0.2 -0.2 -0.35
v -0.2 -0.2 -0.45
v -0.2 -0.2 -0.55
v -0.2 -0.1 -0.45
v -0.2 -0.1 -0.55
v -0.2 0 -0.45
v -0.2 0 -0.55
v -0.2 0.2 -0.45
v -0.2 0.2 -0.55
v 0.1 -0.2 0.55
v 0.1 -0.2 0.15
v 0.1 -0.2 0.05
v 0.1 -0.1 0.55
v 0.1 -0.1 0.15
v 0.1 -0.1 0.05
v 0.1 0.1 0.55
v 0.1 0.1 0.15
v 0.1 0.1 0.05
v 0.1 0.2 0.55
v 0.1 0.2 0.15
v 0.1 0.2 0.05
v 0.2 -0.1 0.55
v 0.2 -0.1 0.15
v 0.2 -0.1 0.05
v 0.2 0 0.15
v 0.2 0 0.05
v 0.2 0.1 0.55
v 0.2 0.1 0.15
v 0.2 0.1 0.05
v 0.4 -0.3 0.35
v 0.4 -0.3 -0.45
v 0.4 -0.2 0.35
v 0.4 -0.2 -0.45
v 0.4 0.2 0.35
v 0.4 0.2 -0.35
v 0.4 0.3 0.35
v 0.4 0.3 -0.35
v 0.5 -0.2 0.35
v 0.5 -0.2 -0.55
v 0.5 -0.1 0.35
v 0.5 -0.1 -0.55
v 0.5 0 0.35
v 0.5 0 -0.55
v 0.5 0.2 0.35
v 0.5 0.2 -0.55
v -0.2 -0.1 0.55
v -0.2 0.1 0.55
v -0.1 -0.2 0.55
v -0.1 -0.1 0.55
v -0.1 0.1 0.55
v -0.1 0.2 0.55
v 0.1 -0.2 0.55
v 0.1 -0.1 0.55
v 0.1 0.1 0.55
v 0.1 0.2 0.55
v 0.2 -0.1 0.55
v 0.2 0.1 0.55
v -0.5 -0.2 0.35
v -0.5 -0.1 0.35
v -0.5 0 0.35
v -0.5 0.2 0.35
v -0.4 -0.3 0.35
v -0.4 -0.2 0.35
v -0.4 0.2 0.35
v -0.4 0.3 0.35
v -0.3 -0.3 0.35
v -0.3 -0.1 0.35
v -0.3 0 0.35
v -0.3 0.3 0.35
v 0.3 -0.3 0.35
v 0.3 -0.1 0.35
v 0.3 0 0.35
v 0.3 0.3 0.35
v 0.4 -0.3 0.35
v 0.4 -0.2 0.35
v 0.4 0.2 0.35
v 0.4 0.3 0.35
v 0.5 -0.2 0.35
v 0.5 -0.1 0.35
v 0.5 0 0.35
v 0.5 0.2 0.35
v -0.3 -0.3 0.05
v -0.3 -0.1 0.05
v -0.3 0 0.05
v -0.3 0.2 0.05
v -0.2 -0.1 0.05
v -0.2 0 0.05
v -0.2 0.1 0.05
v -0.1 -0.2 0.05
v -0.1 -0.1 0.05
v -0.1 0.1 0.05
v -0.1 0.2 0.05
v 0.1 -0.2 0.05
v 0.1 -0.1 0.05
v 0.1 0.1 0.05
v 0.1 0.2 0.05
v 0.2 -0.1 0.05
v 0.2 0 0.05
v 0.2 0.1 0.05
v 0.3 -0.3 0.05
v 0.3 -0.1 0.05
v 0.3 0 0.05
v 0.3 0.2 0.05
v -0.3 0.2 -0.15
v -0.3 0.3 -0.15
v 0.3 0.2 -0.15
v 0.3 0.3 -0.15
v -0.4 0.2 -0.35
v -0.4 0.3 -0.35
v -0.2 -0.3 -0.35
v -0.2 -0.2 -0.35
v 0.2 -0.3 -0.35
v 0.2 -0.2 -0.35
v 0.4 0.2 -0.35
v 0.4 0.3 -0.35
v -0.4 -0.3 -0.45
v -0.4 -0.2 -0.45
v -0.2 -0.3 -0.45
v -0.2 -0.2 -0.45
v -0.2 -0.1 -0.45
v -0.2 0 -0.45
v -0.2 0.2 -0.45
v 0.2 -0.3 -0.45
v 0.2 -0.2 -0.45
v 0.2 -0.1 -0.45
v 0.2 0 -0.45
v 0.2 0.2 -0.45
v 0.4 -0.3 -0.45
v 0.4 -0.2 -0.45
v -0.5 -0.2 -0.55
v -0.5 -0.1 -0.55
v -0.5 0 -0.55
v -0.5 0.2 -0.55
v -0.2 -0.2 -0.55
v -0.2 -0.1 -0.55
v -0.2 0 -0.55
v -0.2 0.2 -0.55
v 0.2 -0.2 -0.55
v 0.2 -0.1 -0.55
v 0.2 0 -0.55
v 0.2 0.2 -0.55
v 0.5 -0.2 -0.55
v 0.5 -0.1 -0.55
v 0.5 0 -0.55
v 0.5 0.2 -0.55
v -0.4 -0.3 0.35
v -0.3 -0.3 0.35
v 0.3 -0.3 0.35
v 0.4 -0.3 0.35
v -0.3 -0.3 0.05
v 0.3 -0.3 0.05
v -0.2 -0.3 -0.35
v 0.2 -0.3 -0.35
v -0.4 -0.3 -0.45
v -0.2 -0.3 -0.45
v 0.2 -0.3 -0.45
v 0.4 -0.3 -0.45
v -0.1 -0.2 0.55
v 0.1 -0.2 0.55
v -0.5 -0.2 0.35
v -0.4 -0.2 0.35
v 0.4 -0.2 0.35
v 0.5 -0.2 0.35
v -0.1 -0.2 0.15
v 0.1 -0.2 0.15
v -0.1 -0.2 0.05
v 0.1 -0.2 0.05
v -0.2 -0.2 -0.35
v 0.2 -0.2 -0.35
v -0.4 -0.2 -0.45
v -0.2 -0.2 -0.45
v 0.2 -0.2 -0.45
v 0.4 -0.2 -0.45
v -0.5 -0.2 -0.55
v -0.2 -0.2 -0.55
v 0.2 -0.2 -0.55
v 0.5 -0.2 -0.55
v -0.2 -0.1 0.55
v -0.1 -0.1 0.55
v 0.1 -0.1 0.55
v 0.2 -0.1 0.55
v -0.2 -0.1 0.15
v -0.1 -0.1 0.15
v 0.1 -0.1 0.15
v 0.2 -0.1 0.15
v -0.2 -0.1 0.05
v -0.1 -0.1 0.05
v 0.1 -0.1 0.05
v 0.2 -0.1 0.05
v -0.2 0.1 0.55
v -0.1 0.1 0.55
v 0.1 0.1 0.55
v 0.2 0.1 0.55
v -0.2 0.1 0.15
v -0.1 0.1 0.15
v 0.1 0.1 0.15
v 0.2 0.1 0.15
v -0.2 0.1 0.05
v -0.1 0.1 0.05
v 0.1 0.1 0.05
v 0.2 0.1 0.05
v -0.1 0.2 0.55
v 0.1 0.2 0.55
v -0.5 0.2 0.35
v -0.4 0.2 0.35
v 0.4 0.2 0.35
v 0.5 0.2 0.35
v -0.1 0.2 0.15
v 0.1 0.2 0.15
v -0.3 0.2 0.05
v -0.1 0.2 0.05
v 0.1 0.2 0.05
v 0.3 0.2 0.05
v -0.3 0.2 -0.15
v 0.3 0.2 -0.15
v -0.4 0.2 -0.35
v 0.4 0.2 -0.35
v -0.2 0.2 -0.45
v 0.2 0.2 -0.45
v -0.5 0.2 -0.55
v -0.2 0.2 -0.55
v 0.2 0.2 -0.55
v 0.5 0.2 -0.55
v -0.4 0.3 0.35
v -0.3 0.3 0.35
v 0.3 0.3 0.35
v 0.4 0.3 0.35
v -0.3 0.3 -0.15
v 0.3 0.3 -0.15
v -0.4 0.3 -0.35
v 0.4 0.3 -0.35

# faces
f 3/1/1 2/1/1 1/1/1
f 4/1/1 2/1/1 3/1/1
f 5/7/1 4/7/1 3/7/1
f 6/7/1 4/7/1 5/7/1
f 7/1/1 6/1/1 5/1/1
f 8/1/1 6/1/1 7/1/1
f 11/1/1 10/1/1 9/1/1
f 12/1/1 10/1/1 11/1/1
f 15/1/1 14/1/1 13/1/1
f 16/1/1 14/1/1 15/1/1
f 20/4/1 18/4/1 17/4/1
f 20/7/1 19/7/1 18/7/1
f 21/7/1 19/7/1 20/7/1
f 22/4/1 20/4/1 17/4/1
f 23/2/1 21/2/1 20/2/1
f 23/4/1 20/4/1 22/4/1
f 24/2/1 21/2/1 23/2/1
f 28/4/1 26/4/1 25/4/1
f 29/1/1 27/1/1 26/1/1
f 29/4/1 26/4/1 28/4/1
f 30/1/1 27/1/1 29/1/1
f 34/4/1 32/4/1 31/4/1
f 35/1/1 33/1/1 32/1/1
f 35/4/1 32/4/1 34/4/1
f 36/1/1 33/1/1 35/1/1
f 39/1/1 38/1/1 37/1/1
f 40/1/1 38/1/1 39/1/1
f 42/1/1 41/1/1 40/1/1
f 43/1/1 41/1/1 42/1/1
f 44/7/1 43/7/1 42/7/1
f 45/7/1 43/7/1 44/7/1
f 46/1/1 45/1/1 44/1/1
f 47/1/1 45/1/1 46/1/1
f 50/1/1 49/1/1 48/1/1
f 51/1/1 49/1/1 50/1/1
f 52/7/1 51/7/1 50/7/1
f 53/7/1 51/7/1 52/7/1
f 54/1/1 53/1/1 52/1/1
f 56/1/1 54/1/1 52/1/1
f 56/1/1 55/1/1 54/1/1
f 57/1/1 55/1/1 56/1/1
f 58/1/2 59/1/2 60/1/2
f 60/1/2 59/1/2 61/1/2
f 60/7/2 61/7/2 62/7/2
f 62/7/2 61/7/2 63/7/2
f 62/1/2 63/1/2 64/1/2
f 62/1/2 64/1/2 66/1/2
f 64/1/2 65/1/2 66/1/2
f 66/1/2 65/1/2 67/1/2
f 68/1/2 69/1/2 70/1/2
f 70/1/2 69/1/2 71/1/2
f 71/1/2 72/1/2 73/1/2
f 73/1/2 72/1/2 74/1/2
f 73/7/2 74/7/2 75/7/2
f 75/7/2 74/7/2 76/7/2
f 75/1/2 76/1/2 77/1/2
f 77/1/2 76/1/2 78/1/2
f 79/4/2 80/4/2 82/4/2
f 80/1/2 81/1/2 83/1/2
f 82/4/2 80/4/2 83/4/2
f 83/1/2 81/1/2 84/1/2
f 85/4/2 86/4/2 88/4/2
f 86/1/2 87/1/2 89/1/2
f 88/4/2 86/4/2 89/4/2
f 89/1/2 87/1/2 90/1/2
f 91/4/2 92/4/2 94/4/2
f 92/7/2 93/7/2 94/7/2
f 94/7/2 93/7/2 95/7/2
f 91/4/2 94/4/2 96/4/2
f 94/2/2 95/2/2 97/2/2
f 96/4/2 94/4/2 97/4/2
f 97/2/2 95/2/2 98/2/2
f 99/1/2 100/1/2 101/1/2
f 101/1/2 100/1/2 102/1/2
f 103/1/2 104/1/2 105/1/2
f 105/1/2 104/1/2 106/1/2
f 107/1/2 108/1/2 109/1/2
f 109/1/2 108/1/2 110/1/2
f 109/7/2 110/7/2 111/7/2
f 111/7/2 110/7/2 112/7/2
f 111/1/2 112/1/2 113/1/2
f 113/1/2 112/1/2 114/1/2
f 118/4/3 116/4/3 115/4/3
f 119/4/3 116/4/3 118/4/3
f 121/4/3 118/4/3 117/4/3
f 122/7/3 119/7/3 118/7/3
f 122/4/3 118/4/3 121/4/3
f 123/4/3 120/4/3 119/4/3
f 123/7/3 119/7/3 122/7/3
f 124/4/3 120/4/3 123/4/3
f 125/4/3 123/4/3 122/4/3
f 126/4/3 123/4/3 125/4/3
f 132/1/3 128/1/3 127/1/3
f 133/1/3 130/1/3 129/1/3
f 135/1/3 132/1/3 131/1/3
f 136/7/3 129/7/3 128/7/3
f 136/1/3 132/1/3 135/1/3
f 136/1/3 128/1/3 132/1/3
f 137/1/3 134/1/3 133/1/3
f 137/7/3 129/7/3 136/7/3
f 137/1/3 133/1/3 129/1/3
f 138/1/3 134/1/3 137/1/3
f 143/1/3 140/1/3 139/1/3
f 144/1/3 140/1/3 143/1/3
f 145/1/3 142/1/3 141/1/3
f 146/1/3 142/1/3 145/1/3
f 147/1/3 140/1/3 144/1/3
f 148/7/3 141/7/3 140/7/3
f 148/1/3 140/1/3 147/1/3
f 149/1/3 145/1/3 141/1/3
f 149/7/3 141/7/3 148/7/3
f 150/1/3 145/1/3 149/1/3
f 155/1/3 152/1/3 151/1/3
f 155/7/3 153/7/3 152/7/3
f 156/1/3 154/1/3 153/1/3
f 156/7/3 153/7/3 155/7/3
f 157/1/3 154/1/3 156/1/3
f 158/1/3 155/1/3 151/1/3
f 159/1/3 155/1/3 158/1/3
f 160/1/3 154/1/3 157/1/3
f 161/1/3 154/1/3 160/1/3
f 162/1/3 158/1/3 151/1/3
f 166/1/3 163/1/3 162/1/3
f 168/1/3 165/1/3 164/1/3
f 169/1/3 162/1/3 151/1/3
f 169/1/3 166/1/3 162/1/3
f 170/7/3 167/7/3 166/7/3
f 170/1/3 166/1/3 169/1/3
f 171/1/3 168/1/3 167/1/3
f 171/7/3 167/7/3 170/7/3
f 172/1/3 165/1/3 168/1/3
f 172/1/3 168/1/3 171/1/3
f 175/1/3 174/1/3 173/1/3
f 176/1/3 174/1/3 175/1/3
f 179/1/4 180/1/4 181/1/4
f 181/1/4 180/1/4 182/1/4
f 177/1/4 178/1/4 183/1/4
f 183/1/4 178/1/4 184/1/4
f 185/1/4 186/1/4 187/1/4
f 187/1/4 186/1/4 188/1/4
f 188/1/4 189/1/4 193/1/4
f 189/7/4 190/7/4 194/7/4
f 193/1/4 189/1/4 194/1/4
f 190/1/4 191/1/4 195/1/4
f 194/7/4 190/7/4 195/7/4
f 195/1/4 191/1/4 196/1/4
f 192/1/4 193/1/4 197/1/4
f 197/1/4 193/1/4 198/1/4
f 199/1/4 200/1/4 203/1/4
f 200/7/4 201/7/4 204/7/4
f 203/1/4 200/1/4 204/1/4
f 201/1/4 202/1/4 205/1/4
f 204/7/4 201/7/4 205/7/4
f 205/1/4 202/1/4 206/1/4
f 207/1/4 208/1/4 211/1/4
f 208/7/4 209/7/4 212/7/4
f 211/1/4 208/1/4 212/1/4
f 209/1/4 210/1/4 213/1/4
f 212/7/4 209/7/4 213/7/4
f 213/1/4 210/1/4 214/1/4
f 219/1/5 216/1/5 215/1/5
f 220/1/5 218/1/5 217/1/5
f 221/1/5 220/1/5 219/1/5
f 222/1/5 220/1/5 221/1/5
f 223/1/5 219/1/5 215/1/5
f 223/1/5 221/1/5 219/1/5
f 224/1/5 221/1/5 223/1/5
f 225/1/5 220/1/5 222/1/5
f 226/1/5 218/1/5 220/1/5
f 226/1/5 220/1/5 225/1/5
f 233/4/5 228/4/5 227/4/5
f 234/4/5 228/4/5 233/4/5
f 235/1/5 234/1/5 233/1/5
f 236/1/5 234/1/5 235/1/5
f 239/1/5 230/1/5 229/1/5
f 240/1/5 238/1/5 237/1/5
f 241/1/5 238/1/5 240/1/5
f 242/1/5 232/1/5 231/1/5
f 243/1/5 239/1/5 229/1/5
f 243/1/5 240/1/5 239/1/5
f 244/1/5 240/1/5 243/1/5
f 245/1/5 242/1/5 241/1/5
f 246/1/5 232/1/5 242/1/5
f 246/1/5 242/1/5 245/1/5
f 251/4/5 248/4/5 247/4/5
f 252/4/5 248/4/5 251/4/5
f 253/4/5 250/4/5 249/4/5
f 254/4/5 250/4/5 253/4/5
f 255/7/5 252/7/5 251/7/5
f 256/7/5 252/7/5 255/7/5
f 257/7/5 254/7/5 253/7/5
f 258/7/5 254/7/5 257/7/5
f 259/4/6 260/4/6 263/4/6
f 263/4/6 260/4/6 264/4/6
f 261/4/6 262/4/6 265/4/6
f 265/4/6 262/4/6 266/4/6
f 263/2/6 264/2/6 267/2/6
f 267/2/6 264/2/6 268/2/6
f 265/2/6 266/2/6 269/2/6
f 269/2/6 266/2/6 270/2/6
f 271/4/6 272/4/6 277/4/6
f 277/4/6 272/4/6 278/4/6
f 277/1/6 278/1/6 280/1/6
f 280/1/6 278/1/6 281/1/6
f 280/1/6 281/1/6 283/1/6
f 281/1/6 282/1/6 283/1/6
f 279/1/6 280/1/6 283/1/6
f 283/1/6 282/1/6 284/1/6
f 273/1/6 274/1/6 285/1/6
f 275/1/6 276/1/6 286/1/6
f 285/1/6 286/1/6 287/1/6
f 287/1/6 286/1/6 288/1/6
f 273/1/6 285/1/6 289/1/6
f 285/1/6 287/1/6 289/1/6
f 289/1/6 287/1/6 290/1/6
f 288/1/6 286/1/6 291/1/6
f 286/1/6 276/1/6 292/1/6
f 291/1/6 286/1/6 292/1/6
f 293/1/6 294/1/6 297/1/6
f 295/1/6 296/1/6 298/1/6
f 293/1/6 297/1/6 299/1/6
f 297/1/6 298/1/6 299/1/6
f 298/1/6 296/1/6 300/1/6
f 299/1/6 298/1/6 300/1/6
