# MagicaVoxel @ Ephtracy

# group
g Turret

# material
mtllib Turret.mtl
usemtl palette

# normals
vn -1 0 0
vn 1 0 0
vn 0 0 1
vn 0 0 -1
vn 0 -1 0
vn 0 1 0

# texcoords
vt 0.853516 0.5
vt 0.861328 0.5
vt 0.966797 0.5
vt 0.982422 0.5
vt 0.986328 0.5
vt 0.994141 0.5

# verts
v -0.5 0 0.35
v -0.5 0 -0.55
v -0.5 0.1 0.35
v -0.5 0.1 -0.55
v -0.5 0.2 0.35
v -0.5 0.2 -0.55
v -0.5 0.3 0.35
v -0.5 0.3 -0.55
v -0.4 0.3 0.35
v -0.4 0.3 -0.45
v -0.4 0.4 0.35
v -0.4 0.4 -0.45
v -0.2 0.1 0.55
v -0.2 0.1 0.15
v -0.2 0.2 0.15
v -0.2 0.3 0.55
v -0.2 0.3 0.15
v -0.1 0 0.55
v -0.1 0 0.15
v -0.1 0.1 0.55
v -0.1 0.1 0.15
v -0.1 0.3 0.55
v -0.1 0.3 0.15
v -0.1 0.3 -0.45
v -0.1 0.3 -0.55
v -0.1 0.4 0.55
v -0.1 0.4 0.15
v -0.1 0.4 -0.45
v -0.1 0.4 -0.55
v 0.3 0 0.35
v 0.3 0 0.15
v 0.3 0.1 0.35
v 0.3 0.1 0.15
v 0.3 0.2 0.35
v 0.3 0.2 0.15
v 0.3 0.4 0.35
v 0.3 0.4 0.15
v -0.3 0 0.35
v -0.3 0 0.15
v -0.3 0.1 0.35
v -0.3 0.1 0.15
v -0.3 0.2 0.35
v -0.3 0.2 0.15
v -0.3 0.4 0.35
v -0.3 0.4 0.15
v 0.1 0 0.55
v 0.1 0 0.15
v 0.1 0.1 0.55
v 0.1 0.1 0.15
v 0.1 0.3 0.55
v 0.1 0.3 0.15
v 0.1 0.3 -0.45
v 0.1 0.3 -0.55
v 0.1 0.4 0.55
v 0.1 0.4 0.15
v 0.1 0.4 -0.45
v 0.1 0.4 -0.55
v 0.2 0.1 0.55
v 0.2 0.1 0.15
v 0.2 0.2 0.15
v 0.2 0.3 0.55
v 0.2 0.3 0.15
v 0.4 0.3 0.35
v 0.4 0.3 -0.45
v 0.4 0.4 0.35
v 0.4 0.4 -0.45
v 0.5 0 0.35
v 0.5 0 -0.55
v 0.5 0.1 0.35
v 0.5 0.1 -0.55
v 0.5 0.2 0.35
v 0.5 0.2 -0.55
v 0.5 0.3 0.35
v 0.5 0.3 -0.55
v -0.2 0.1 0.55
v -0.2 0.3 0.55
v -0.1 0 0.55
v -0.1 0.1 0.55
v -0.1 0.3 0.55
v -0.1 0.4 0.55
v 0.1 0 0.55
v 0.1 0.1 0.55
v 0.1 0.3 0.55
v 0.1 0.4 0.55
v 0.2 0.1 0.55
v 0.2 0.3 0.55
v -0.5 0 0.35
v -0.5 0.1 0.35
v -0.5 0.2 0.35
v -0.5 0.3 0.35
v -0.4 0.3 0.35
v -0.4 0.4 0.35
v -0.3 0 0.35
v -0.3 0.1 0.35
v -0.3 0.2 0.35
v -0.3 0.4 0.35
v 0.3 0 0.35
v 0.3 0.1 0.35
v 0.3 0.2 0.35
v 0.3 0.4 0.35
v 0.4 0.3 0.35
v 0.4 0.4 0.35
v 0.5 0 0.35
v 0.5 0.1 0.35
v 0.5 0.2 0.35
v 0.5 0.3 0.35
v -0.3 0 0.15
v -0.3 0.1 0.15
v -0.3 0.2 0.15
v -0.3 0.4 0.15
v -0.2 0.1 0.15
v -0.2 0.2 0.15
v -0.2 0.3 0.15
v -0.1 0 0.15
v -0.1 0.1 0.15
v -0.1 0.3 0.15
v -0.1 0.4 0.15
v 0.1 0 0.15
v 0.1 0.1 0.15
v 0.1 0.3 0.15
v 0.1 0.4 0.15
v 0.2 0.1 0.15
v 0.2 0.2 0.15
v 0.2 0.3 0.15
v 0.3 0 0.15
v 0.3 0.1 0.15
v 0.3 0.2 0.15
v 0.3 0.4 0.15
v -0.4 0.3 -0.45
v -0.4 0.4 -0.45
v -0.2 0.3 -0.45
v -0.1 0.3 -0.45
v -0.1 0.4 -0.45
v 0.1 0.3 -0.45
v 0.1 0.4 -0.45
v 0.2 0.3 -0.45
v 0.4 0.3 -0.45
v 0.4 0.4 -0.45
v -0.5 0 -0.55
v -0.5 0.1 -0.55
v -0.5 0.2 -0.55
v -0.5 0.3 -0.55
v -0.2 0.1 -0.55
v -0.2 0.2 -0.55
v -0.2 0.3 -0.55
v -0.1 0 -0.55
v -0.1 0.1 -0.55
v -0.1 0.3 -0.55
v -0.1 0.4 -0.55
v 0.1 0 -0.55
v 0.1 0.1 -0.55
v 0.1 0.3 -0.55
v 0.1 0.4 -0.55
v 0.2 0.1 -0.55
v 0.2 0.2 -0.55
v 0.2 0.3 -0.55
v 0.5 0 -0.55
v 0.5 0.1 -0.55
v 0.5 0.2 -0.55
v 0.5 0.3 -0.55
v -0.1 0 0.55
v 0.1 0 0.55
v -0.5 0 0.35
v -0.3 0 0.35
v 0.3 0 0.35
v 0.5 0 0.35
v -0.3 0 0.15
v -0.1 0 0.15
v 0.1 0 0.15
v 0.3 0 0.15
v -0.1 0 -0.45
v 0.1 0 -0.45
v -0.5 0 -0.55
v -0.1 0 -0.55
v 0.1 0 -0.55
v 0.5 0 -0.55
v -0.2 0.1 0.55
v -0.1 0.1 0.55
v 0.1 0.1 0.55
v 0.2 0.1 0.55
v -0.2 0.1 0.15
v -0.1 0.1 0.15
v 0.1 0.1 0.15
v 0.2 0.1 0.15
v -0.2 0.3 0.55
v -0.1 0.3 0.55
v 0.1 0.3 0.55
v 0.2 0.3 0.55
v -0.5 0.3 0.35
v -0.4 0.3 0.35
v 0.4 0.3 0.35
v 0.5 0.3 0.35
v -0.2 0.3 0.15
v -0.1 0.3 0.15
v 0.1 0.3 0.15
v 0.2 0.3 0.15
v -0.4 0.3 -0.45
v -0.2 0.3 -0.45
v -0.1 0.3 -0.45
v 0.1 0.3 -0.45
v 0.2 0.3 -0.45
v 0.4 0.3 -0.45
v -0.5 0.3 -0.55
v -0.2 0.3 -0.55
v -0.1 0.3 -0.55
v 0.1 0.3 -0.55
v 0.2 0.3 -0.55
v 0.5 0.3 -0.55
v -0.1 0.4 0.55
v 0.1 0.4 0.55
v -0.4 0.4 0.35
v -0.3 0.4 0.35
v 0.3 0.4 0.35
v 0.4 0.4 0.35
v -0.3 0.4 0.15
v -0.1 0.4 0.15
v 0.1 0.4 0.15
v 0.3 0.4 0.15
v -0.4 0.4 -0.45
v -0.1 0.4 -0.45
v 0.1 0.4 -0.45
v 0.4 0.4 -0.45
v -0.1 0.4 -0.55
v 0.1 0.4 -0.55

# faces
f 3/2/1 2/2/1 1/2/1
f 4/2/1 2/2/1 3/2/1
f 5/6/1 4/6/1 3/6/1
f 6/6/1 4/6/1 5/6/1
f 7/1/1 6/1/1 5/1/1
f 8/1/1 6/1/1 7/1/1
f 11/1/1 10/1/1 9/1/1
f 12/1/1 10/1/1 11/1/1
f 15/3/1 14/3/1 13/3/1
f 16/3/1 15/3/1 13/3/1
f 17/3/1 15/3/1 16/3/1
f 20/3/1 19/3/1 18/3/1
f 21/3/1 19/3/1 20/3/1
f 26/3/1 23/3/1 22/3/1
f 27/3/1 23/3/1 26/3/1
f 28/3/1 25/3/1 24/3/1
f 29/3/1 25/3/1 28/3/1
f 32/2/1 31/2/1 30/2/1
f 33/2/1 31/2/1 32/2/1
f 34/6/1 33/6/1 32/6/1
f 35/6/1 33/6/1 34/6/1
f 36/1/1 35/1/1 34/1/1
f 37/1/1 35/1/1 36/1/1
f 38/2/2 39/2/2 40/2/2
f 40/2/2 39/2/2 41/2/2
f 40/6/2 41/6/2 42/6/2
f 42/6/2 41/6/2 43/6/2
f 42/1/2 43/1/2 44/1/2
f 44/1/2 43/1/2 45/1/2
f 46/3/2 47/3/2 48/3/2
f 48/3/2 47/3/2 49/3/2
f 50/3/2 51/3/2 54/3/2
f 54/3/2 51/3/2 55/3/2
f 52/3/2 53/3/2 56/3/2
f 56/3/2 53/3/2 57/3/2
f 58/3/2 59/3/2 60/3/2
f 58/3/2 60/3/2 61/3/2
f 61/3/2 60/3/2 62/3/2
f 63/1/2 64/1/2 65/1/2
f 65/1/2 64/1/2 66/1/2
f 67/2/2 68/2/2 69/2/2
f 69/2/2 68/2/2 70/2/2
f 69/6/2 70/6/2 71/6/2
f 71/6/2 70/6/2 72/6/2
f 71/1/2 72/1/2 73/1/2
f 73/1/2 72/1/2 74/1/2
f 78/3/3 76/3/3 75/3/3
f 79/3/3 76/3/3 78/3/3
f 81/3/3 78/3/3 77/3/3
f 82/6/3 79/6/3 78/6/3
f 82/3/3 78/3/3 81/3/3
f 83/3/3 80/3/3 79/3/3
f 83/6/3 79/6/3 82/6/3
f 84/3/3 80/3/3 83/3/3
f 85/3/3 83/3/3 82/3/3
f 86/3/3 83/3/3 85/3/3
f 91/1/3 90/1/3 89/1/3
f 93/2/3 88/2/3 87/2/3
f 94/6/3 89/6/3 88/6/3
f 94/2/3 88/2/3 93/2/3
f 95/1/3 92/1/3 91/1/3
f 95/6/3 89/6/3 94/6/3
f 95/1/3 91/1/3 89/1/3
f 96/1/3 92/1/3 95/1/3
f 101/1/3 100/1/3 99/1/3
f 102/1/3 100/1/3 101/1/3
f 103/2/3 98/2/3 97/2/3
f 104/6/3 99/6/3 98/6/3
f 104/2/3 98/2/3 103/2/3
f 105/1/3 101/1/3 99/1/3
f 105/6/3 99/6/3 104/6/3
f 106/1/3 101/1/3 105/1/3
f 111/2/3 108/2/3 107/2/3
f 111/6/3 109/6/3 108/6/3
f 112/1/3 110/1/3 109/1/3
f 112/6/3 109/6/3 111/6/3
f 113/1/3 110/1/3 112/1/3
f 114/2/3 111/2/3 107/2/3
f 115/2/3 111/2/3 114/2/3
f 116/1/3 110/1/3 113/1/3
f 117/1/3 110/1/3 116/1/3
f 122/2/3 119/2/3 118/2/3
f 124/1/3 121/1/3 120/1/3
f 125/2/3 122/2/3 118/2/3
f 126/6/3 123/6/3 122/6/3
f 126/2/3 122/2/3 125/2/3
f 127/1/3 124/1/3 123/1/3
f 127/6/3 123/6/3 126/6/3
f 128/1/3 121/1/3 124/1/3
f 128/1/3 124/1/3 127/1/3
f 129/1/4 130/1/4 131/1/4
f 131/1/4 130/1/4 132/1/4
f 132/1/4 130/1/4 133/1/4
f 134/1/4 135/1/4 136/1/4
f 136/1/4 135/1/4 137/1/4
f 137/1/4 135/1/4 138/1/4
f 139/2/4 140/2/4 143/2/4
f 140/6/4 141/6/4 143/6/4
f 141/1/4 142/1/4 144/1/4
f 143/6/4 141/6/4 144/6/4
f 144/1/4 142/1/4 145/1/4
f 139/2/4 143/2/4 146/2/4
f 143/3/4 144/3/4 147/3/4
f 146/2/4 143/2/4 147/2/4
f 144/3/4 145/3/4 147/3/4
f 147/3/4 145/3/4 148/3/4
f 147/3/4 148/3/4 150/3/4
f 148/3/4 149/3/4 150/3/4
f 146/3/4 147/3/4 150/3/4
f 150/3/4 149/3/4 151/3/4
f 151/3/4 149/3/4 152/3/4
f 152/3/4 149/3/4 153/3/4
f 150/2/4 151/2/4 154/2/4
f 151/3/4 152/3/4 154/3/4
f 154/3/4 152/3/4 155/3/4
f 155/3/4 152/3/4 156/3/4
f 150/2/4 154/2/4 157/2/4
f 154/6/4 155/6/4 158/6/4
f 157/2/4 154/2/4 158/2/4
f 155/1/4 156/1/4 159/1/4
f 158/6/4 155/6/4 159/6/4
f 159/1/4 156/1/4 160/1/4
f 167/2/5 164/2/5 163/2/5
f 168/3/5 162/3/5 161/3/5
f 169/3/5 162/3/5 168/3/5
f 170/2/5 166/2/5 165/2/5
f 171/2/5 169/2/5 168/2/5
f 171/2/5 170/2/5 169/2/5
f 171/2/5 168/2/5 167/2/5
f 172/2/5 170/2/5 171/2/5
f 173/2/5 167/2/5 163/2/5
f 173/2/5 171/2/5 167/2/5
f 174/3/5 172/3/5 171/3/5
f 174/2/5 171/2/5 173/2/5
f 175/2/5 170/2/5 172/2/5
f 175/3/5 172/3/5 174/3/5
f 176/2/5 166/2/5 170/2/5
f 176/2/5 170/2/5 175/2/5
f 181/3/5 178/3/5 177/3/5
f 182/3/5 178/3/5 181/3/5
f 183/3/5 180/3/5 179/3/5
f 184/3/5 180/3/5 183/3/5
f 185/3/6 186/3/6 193/3/6
f 193/3/6 186/3/6 194/3/6
f 187/3/6 188/3/6 195/3/6
f 195/3/6 188/3/6 196/3/6
f 189/1/6 190/1/6 197/1/6
f 191/1/6 192/1/6 202/1/6
f 189/1/6 197/1/6 203/1/6
f 197/1/6 198/1/6 203/1/6
f 198/3/6 199/3/6 204/3/6
f 203/1/6 198/1/6 204/1/6
f 204/3/6 199/3/6 205/3/6
f 200/3/6 201/3/6 206/3/6
f 201/1/6 202/1/6 207/1/6
f 206/3/6 201/3/6 207/3/6
f 202/1/6 192/1/6 208/1/6
f 207/1/6 202/1/6 208/1/6
f 211/1/6 212/1/6 215/1/6
f 209/3/6 210/3/6 216/3/6
f 216/3/6 210/3/6 217/3/6
f 213/1/6 214/1/6 218/1/6
f 211/1/6 215/1/6 219/1/6
f 217/1/6 218/1/6 219/1/6
f 216/1/6 217/1/6 219/1/6
f 215/1/6 216/1/6 219/1/6
f 219/1/6 218/1/6 220/1/6
f 220/1/6 218/1/6 221/1/6
f 218/1/6 214/1/6 222/1/6
f 221/1/6 218/1/6 222/1/6
f 220/3/6 221/3/6 223/3/6
f 223/3/6 221/3/6 224/3/6
